<svg xmlns="http://www.w3.org/2000/svg"  viewBox="0 0 512 512" width="135px" height="135px" fill='white' fill-rule="evenodd" clip-rule="evenodd" image-rendering="optimizeQuality" shape-rendering="geometricPrecision" text-rendering="geometricPrecision"><path fill="#2b2a29" d="M57 104c0,0 0,0 0,1m396 -1c0,0 0,0 0,1m-430 -17c8,-8 20,-8 28,-1l0 0 0 0 0 0 0 0 0 0 0 0 0 0 0 0 0 0 0 0c0,0 0,0 1,1l0 0 0 0 0 0 0 0 0 0 0 0 0 0 0 0 0 0 0 0 0 0 0 0 0 0 0 0 0 0 0 0 0 0 0 0 0 0 0 0 0 0 0 0 0 0 0 0 0 0 0 0 0 0 0 0 0 0 0 0 0 0 0 0 0 0 0 0 0 0 0 0 0 0 0 0 0 0 0 0 0 0 0 0 0 0 0 0 0 0 0 0 0 0 0 0 0 0 0 0 0 0 0 0 0 0 0 0 0 0 0 0 0 0 0 0 0 0 0 0 0 0 0 0 0 0 0 0 0 0 0 0 0 0 0 0 0 0 0 0 0 0 0 0 0 0 0 0 0 0 0 0 0 0 0 0 0 0 0 0 0 0 0 0c0,0 0,0 0,1l0 0 0 0 0 0c0,0 0,1 0,1l0 0 0 0 0 0c0,0 0,1 0,1l53 41 32 -29c0,-3 1,-6 3,-8 5,-5 12,-5 17,-1l0 0 0 0 0 0 0 0 0 0 0 0 0 0 0 0 0 0 0 0 0 0 0 0 0 0 0 0 0 0 0 0c4,5 4,12 0,17 -3,3 -6,4 -10,4l-30 25 19 18c-2,2 -2,5 -1,14 1,7 2,20 5,37l-46 -44 -24 31c0,3 -1,7 -3,10 -5,5 -12,5 -17,1l0 0 0 0 0 0 0 0 0 0 0 0 0 0 0 0 0 0 0 0 0 0 0 0 0 0 0 0 0 0 0 0c-4,-5 -4,-12 0,-17 2,-2 5,-3 8,-4l28 -33 -43 -51c0,0 -1,0 -1,0l0 0 0 0 0 0c0,0 -1,0 -1,0l0 0 0 0 0 0c0,0 0,0 -1,0l0 0 0 0 0 0 0 0 0 0 0 0 0 0 0 0 0 0 0 0 0 0 0 0 0 0 0 0 0 0 0 0 0 0 0 0 0 0 0 0 0 0 0 0 0 0 0 0 0 0 0 0 0 0 0 0 0 0 0 0 0 0 0 0 0 0 0 0 0 0 0 0 0 0 0 0 0 0 0 0 0 0 0 0 0 0 0 0 0 0 0 0 0 0 0 0 0 0 0 0 0 0 0 0 0 0 0 0 0 0 0 0 0 0 0 0 0 0 0 0 0 0 0 0 0 0 0 0 0 0 0 0 0 0 0 0 0 0 0 0 0 0 0 0 0 0 0 0 0 0 0 0 0 0 0 0 0 0 0 0 0 0 0 0c0,0 -1,0 -1,-1l0 0 0 0 0 0 0 0 0 0 0 0 0 0 0 0 0 0 0 0c-8,-8 -8,-20 -1,-28zm203 61c10,-2 20,-3 28,-3l1 0 1 0c8,0 18,1 28,3 24,4 49,10 49,10 0,0 1,16 11,22 10,7 16,0 13,18 -2,18 -8,87 -34,127 -27,40 -68,61 -68,61l0 -1 0 1c0,0 -41,-21 -68,-61 -27,-40 -32,-109 -34,-127 -2,-18 3,-11 13,-18 10,-7 11,-22 11,-22 0,0 25,-6 49,-10zm11 46c6,-1 12,-2 17,-2l0 0 0 0c5,0 11,1 17,2 15,2 30,6 30,6 0,0 1,9 7,13 6,4 9,0 8,11 -1,11 -5,53 -21,77 -16,24 -41,37 -41,37l0 -1 0 1c0,0 -25,-13 -41,-37 -16,-24 -20,-66 -21,-77 -1,-11 2,-7 8,-11 6,-4 7,-13 7,-13 0,0 15,-4 30,-6zm-5 -19c8,-1 15,-2 22,-2l1 0 1 0c6,0 14,1 22,2 19,3 38,8 38,8 0,0 1,12 9,17 8,5 12,0 10,14 -2,14 -6,67 -26,97 -20,31 -52,47 -52,47l0 -1 0 1c0,0 -32,-16 -52,-47 -20,-31 -25,-84 -26,-97 -2,-14 3,-9 10,-14 8,-5 9,-17 9,-17 0,0 19,-5 38,-8zm136 1l19 -18 -30 -25c-3,0 -7,-1 -10,-4 -5,-5 -5,-12 0,-17l0 0 0 0 0 0 0 0 0 0 0 0 0 0 0 0 0 0 0 0 0 0 0 0 0 0 0 0 0 0 0 0c5,-4 12,-4 17,1 2,2 3,5 3,8l32 29 53 -41c0,0 0,-1 0,-1l0 0 0 0 0 0c0,0 0,-1 0,-1l0 0 0 0 0 0c0,0 0,0 0,-1l0 0 0 0 0 0 0 0 0 0 0 0 0 0 0 0 0 0 0 0 0 0 0 0 0 0 0 0 0 0 0 0 0 0 0 0 0 0 0 0 0 0 0 0 0 0 0 0 0 0 0 0 0 0 0 0 0 0 0 0 0 0 0 0 0 0 0 0 0 0 0 0 0 0 0 0 0 0 0 0 0 0 0 0 0 0 0 0 0 0 0 0 0 0 0 0 0 0 0 0 0 0 0 0 0 0 0 0 0 0 0 0 0 0 0 0 0 0 0 0 0 0 0 0 0 0 0 0 0 0 0 0 0 0 0 0 0 0 0 0 0 0 0 0 0 0 0 0 0 0 0 0 0 0 0 0 0 0 0 0 0 0 0 0c0,0 0,-1 1,-1l0 0 0 0 0 0 0 0 0 0 0 0 0 0 0 0 0 0 0 0c8,-8 21,-7 28,1 8,8 7,21 -1,28l0 0 0 0 0 0 0 0 0 0 0 0 0 0 0 0 0 0 0 0c0,0 -1,0 -1,1l0 0 0 0 0 0 0 0 0 0 0 0 0 0 0 0 0 0 0 0 0 0 0 0 0 0 0 0 0 0 0 0 0 0 0 0 0 0 0 0 0 0 0 0 0 0 0 0 0 0 0 0 0 0 0 0 0 0 0 0 0 0 0 0 0 0 0 0 0 0 0 0 0 0 0 0 0 0 0 0 0 0 0 0 0 0 0 0 0 0 0 0 0 0 0 0 0 0 0 0 0 0 0 0 0 0 0 0 0 0 0 0 0 0 0 0 0 0 0 0 0 0 0 0 0 0 0 0 0 0 0 0 0 0 0 0 0 0 0 0 0 0 0 0 0 0 0 0 0 0 0 0 0 0 0 0 0 0 0 0 0 0 0 0c0,0 0,0 -1,0l0 0 0 0 0 0c0,0 -1,0 -1,0l0 0 0 0 0 0c0,0 -1,0 -1,0l-43 51 28 33c3,0 6,2 8,4 5,5 5,12 0,17l0 0 0 0 0 0 0 0 0 0 0 0 0 0 0 0 0 0 0 0 0 0 0 0 0 0 0 0 0 0 0 0c-5,4 -12,4 -17,-1 -3,-3 -4,-6 -3,-10l-24 -31 -46 44c3,-17 4,-30 5,-37 1,-8 1,-12 -1,-14zm-50 173l59 58 24 43 0 0 0 0 0 0 0 0 -44 -22 -60 -57c7,-6 15,-14 22,-22zm-105 22l-60 57 -44 22 0 0 0 0 0 0 0 0 24 -43 59 -58c7,8 15,16 22,22z"/></svg>