<svg xmlns="http://www.w3.org/2000/svg"  viewBox="0 0 512 512" width="64px" height="64px"><path d="M 246 24.207031 L 165.94336 98.044922 L 246 126.42969 L 246 24.207031 z M 256 24.662109 L 256 126.28906 L 331.18359 98.070312 L 256 24.662109 z M 162.58789 107.45312 L 185.57227 271.03516 L 218.48828 290.53516 A 4.988 4.988 0 0 1 220.88867 294.20508 L 238.81641 435.14062 L 246 437.86133 L 246 137.03711 L 162.58789 107.45312 z M 334.44727 107.53125 L 256 136.9707 L 256 438.05078 L 269.46289 433.36133 A 4.978 4.978 0 0 1 268.57617 430.22852 L 278.85742 222.94531 A 5 5 0 0 1 281.21484 218.94531 L 325 191.73047 L 334.44727 107.53125 z M 182.55859 131.15234 A 5 5 0 0 1 187.6582 135.47656 L 188.19336 139.08594 A 5.0001492 5.0001492 0 1 1 178.30078 140.54688 L 177.76758 136.9375 A 5 5 0 0 1 182.55859 131.15234 z M 185.84375 153.98633 A 5 5 0 0 1 191.02344 158.24805 L 200.93945 225.36523 A 5.0002223 5.0002223 0 0 1 191.04688 226.82617 L 181.13086 159.71094 A 5 5 0 0 1 185.34375 154.0332 L 185.34766 154.0332 A 5 5 0 0 1 185.84375 153.98633 z M 345.50781 190.77344 L 293.5293 223.06641 L 334.71094 247.18555 L 345.50781 190.77344 z M 355.24219 193.10156 L 344.55859 248.92969 L 388.82617 241.33008 L 355.24219 193.10156 z M 288.4375 231.67383 L 278.71289 427.76172 L 297.90039 439.52344 L 332.7168 257.60742 L 288.4375 231.67383 z M 390.23047 251.23633 L 342.55078 259.41992 L 307.6875 441.5918 L 332.26953 437.95703 L 390.23047 251.23633 z M 174.01172 275.79688 L 182.67578 311.43164 L 206.63086 295.12891 L 174.01172 275.79688 z M 164.1875 277.7168 L 142.1875 310.76758 L 172.99023 313.92969 L 164.1875 277.7168 z M 212.01758 303.55859 L 185.19727 321.81055 L 216.7168 451.45312 L 229.76562 443.00977 L 212.01758 303.55859 z M 141.12109 320.71289 L 193.23633 451.94531 L 206.95312 453.63281 L 175.49805 324.23828 L 141.12109 320.71289 z M 166 410.46094 C 131.288 418.80294 109.09961 431.93466 109.09961 444.34766 C 109.09961 464.89766 169.43 487.79297 256 487.79297 C 296.072 487.79297 333.67862 482.83784 361.89062 473.83984 C 387.56962 465.64984 402.90039 454.62566 402.90039 444.34766 C 402.90039 432.45666 383.10039 420.09955 350.90039 411.68555 L 340.89258 443.92773 A 5 5 0 0 1 336.84766 447.39062 L 301.45703 452.56641 A 4.993 4.993 0 0 1 298.84375 451.82812 L 280 440.2832 L 252.69922 449.8125 A 5 5 0 0 1 249.28711 449.76953 L 240.05859 446.28711 A 5 5 0 0 1 237.83789 449.69727 L 216.23633 463.67383 A 5 5 0 0 1 213.52148 464.47461 L 189.07422 461.50586 A 5 5 0 0 1 185.03711 458.38867 L 166 410.46094 z"/></svg>