<svg fill="#1A1A1A" xmlns="http://www.w3.org/2000/svg"  viewBox="0 0 96 96" width="96px" height="96px"><path d="M 34.689453 1 A 2.37 2.37 0 0 0 32.400391 4 C 33.180391 6.8 32.579766 4.6500781 35.259766 14.330078 L 60.740234 14.330078 C 63.410234 4.7100781 62.829375 6.83 63.609375 4 A 2.38 2.38 0 0 0 61.310547 1 L 34.689453 1 z M 50.478516 3.7109375 A 1 1 0 0 1 51.449219 4.7109375 L 51.449219 5.7109375 A 1 1 0 0 1 49.449219 5.7109375 L 49.449219 4.7109375 A 1 1 0 0 1 50.478516 3.7109375 z M 41.029297 5.7109375 A 1 1 0 0 1 42 6.7109375 L 42 7.7109375 A 1 1 0 0 1 40 7.7109375 L 40 6.7109375 A 1 1 0 0 1 41.029297 5.7109375 z M 46.199219 9.7109375 A 1 1 0 0 1 47.169922 10.710938 L 47.169922 11.710938 A 1 1 0 0 1 45.169922 11.710938 L 45.169922 10.710938 A 1 1 0 0 1 46.199219 9.7109375 z M 33.451172 16.335938 A 4.73 4.73 0 1 0 33.609375 25.789062 L 62.390625 25.789062 A 4.73 4.73 0 1 0 62.390625 16.339844 L 33.609375 16.339844 A 4.73 4.73 0 0 0 33.451172 16.335938 z M 33.480469 27.789062 L 5.9296875 71.660156 A 15.23 15.23 0 0 0 18.820312 95 L 77.179688 95 A 15.23 15.23 0 0 0 90.070312 71.660156 L 62.480469 27.789062 L 33.480469 27.789062 z M 28.859375 46.400391 L 66.699219 46.400391 L 84.820312 74.589844 A 9.24 9.24 0 0 1 76.810547 89 L 19.140625 89 A 9.24 9.24 0 0 1 11.199219 74.550781 L 28.859375 46.400391 z M 65.609375 48.369141 L 30 48.400391 L 12.890625 75.619141 A 7.25 7.25 0 0 0 19.140625 87 L 76.810547 87 A 7.24 7.24 0 0 0 83.140625 75.669922 L 65.609375 48.369141 z M 35.980469 53.443359 A 4.57 4.57 0 0 1 40.740234 58 A 4.56 4.56 0 0 1 36.169922 62.580078 A 4.57 4.57 0 0 1 35.980469 53.443359 z M 65.662109 63.181641 A 2.59 2.59 0 0 1 68.359375 65.769531 A 2.59 2.59 0 0 1 65.769531 68.359375 A 2.59 2.59 0 0 1 65.662109 63.181641 z M 43.492188 67.681641 A 2.59 2.59 0 0 1 46.189453 70.269531 A 2.59 2.59 0 0 1 43.599609 72.859375 A 2.59 2.59 0 0 1 43.492188 67.681641 z M 58.232422 72.003906 A 5.21 5.21 0 0 1 63.660156 77.210938 A 5.21 5.21 0 0 1 58.449219 82.419922 A 5.21 5.21 0 0 1 58.232422 72.003906 z M 26.177734 74.683594 A 3.66 3.66 0 0 1 30 78.339844 A 3.66 3.66 0 0 1 26.349609 82 A 3.66 3.66 0 0 1 26.177734 74.683594 z"/></svg>